<svg xmlns="http://www.w3.org/2000/svg" class="icon-google-docs " viewBox="0 0 30 30" focusable="false" role="presentation"><defs><linearGradient gradientTransform="matrix(2.67 0 0 -2.67 596.67 1357)" gradientUnits="userSpaceOnUse" id="icon-google-docs244-a" x1="-215.49" x2="-215.49" y1="505.79" y2="503.19"><stop offset="0" stop-color="#1a237e" stop-opacity=".2"></stop><stop offset="1" stop-color="#1a237e" stop-opacity=".02"></stop></linearGradient></defs><path d="M17.64 0H6.05A2.05 2.05 0 0 0 4 2.05V28a2.05 2.05 0 0 0 2.05 2h17.72a2.05 2.05 0 0 0 2.05-2V8.18l-4.77-3.41z" fill="#4285f4"></path><path d="M18.23 7.58l7.59 7.58V8.18l-7.59-.6z" fill="url(#icon-google-docs244-a)"></path><path d="M9.45 21.82h10.91v-1.37H9.45zm0 2.73h8.19v-1.37H9.45zm0-9.55v1.36h10.91V15zm0 4.09h10.91v-1.36H9.45z" fill="#f1f1f1"></path><path d="M17.64 0v6.14a2 2 0 0 0 2 2h6.14z" fill="#a1c2fa"></path><path d="M6.05 0A2.05 2.05 0 0 0 4 2.05v.17A2.05 2.05 0 0 1 6.05.17h11.59V0z" fill="#fff" fill-opacity=".2"></path><path d="M19.68 8.18a2 2 0 0 1-2-2v.17a2 2 0 0 0 2 2h6.14v-.17z" fill="#1a237e" fill-opacity=".1"></path></svg>